<svg xmlns="http://www.w3.org/2000/svg" viewBox="0 0 32 32">
  <rect width="32" height="32" rx="6" fill="#2563eb"/>
  <path d="M8 9h10a2 2 0 0 1 2 2v1h-2v-1H8v12h10v-1h2v1a2 2 0 0 1-2 2H8a2 2 0 0 1-2-2V11a2 2 0 0 1 2-2z" fill="white"/>
  <path d="M13 14h8M13 17h6M13 20h4" stroke="white" stroke-width="1.5" stroke-linecap="round"/>
  <circle cx="22" cy="13" r="4" fill="#60a5fa" stroke="white" stroke-width="1.5"/>
  <path d="M21 13l1 1 2-2" stroke="white" stroke-width="1.2" stroke-linecap="round" stroke-linejoin="round" fill="none"/>
</svg>
